# xmcd
#
# Track frame offsets:
#	150
#	5875
#	17425
#	34682
#	53612
#	71165
#	87407
#	104115
#	116170
#	138320
#	154137
#	167557
#	182897
#	198127
#
# Disc length: 2923 seconds
#
# Revision: 1
# Processed by: cddbd v1.5.1PL0 Copyright (c) Steve Scherf et al.
# Submitted via: EasyCDDAExtractor 7.0.5.4
#
DISCID=be0b690e
DTITLE=The Blueprints
DYEAR=1999
DGENRE=Blues
TTITLE0=Showtime
TTITLE1=Monkey Business
TTITLE2=I Can't Stand The Rain
TTITLE3=Higher Than High
TTITLE4=True Love
TTITLE5=I Would Kill For A Beer
TTITLE6=Take Me To The River
TTITLE7=Break The Ice
TTITLE8=Bring Back Your Love
TTITLE9=Let You Live (And Live Alone)
TTITLE10=I Wanna Thank You
TTITLE11=The Truth
TTITLE12=Will You Still Love Me
TTITLE13=Monday Blues
EXTD=
EXTT0=
EXTT1=
EXTT2=
EXTT3=
EXTT4=
EXTT5=
EXTT6=
EXTT7=
EXTT8=
EXTT9=
EXTT10=
EXTT11=
EXTT12=
EXTT13=
PLAYORDER=
